<?xml version="1.0" encoding="UTF-8"?>
<svg id="b" data-name="图层 2" xmlns="http://www.w3.org/2000/svg" viewBox="0 0 40 40">
  <defs>
    <style>
      .d {
        fill: #fff;
      }

      .e {
        fill: none;
      }
    </style>
  </defs>
  <g id="c" data-name=" 层 1">
    <g>
      <rect class="e" width="40" height="40"/>
      <path class="d" d="m22.57,11.89c-1.71-.04-3.43-.04-5.14,0h-.05c-1.34.03-2.42.06-3.29.21-.91.16-1.64.46-2.27,1.09-.62.62-.92,1.35-1.08,2.24-.15.85-.17,1.9-.2,3.21v.05c-.02.88-.02,1.75,0,2.63v.05c.03,1.31.05,2.36.2,3.21.16.89.46,1.62,1.08,2.24.62.62,1.36.93,2.27,1.09.87.15,1.95.18,3.29.21h.05c1.71.04,3.43.04,5.14,0h.05c1.34-.03,2.42-.06,3.29-.21.91-.16,1.64-.46,2.27-1.09.62-.62.92-1.35,1.08-2.24.15-.85.17-1.9.2-3.21v-.05c.02-.88.02-1.75,0-2.63v-.05c-.03-1.31-.05-2.36-.2-3.21-.16-.89-.46-1.62-1.08-2.24-.62-.62-1.36-.93-2.27-1.09-.87-.15-1.95-.18-3.29-.21h-.05s0,0,0,0Zm-6.64,4.46l2.59,1.53c.74.44,1.14.58,1.48.58s.73-.14,1.48-.58l2.59-1.53c.31-.19.72-.08.9.23.19.31.08.72-.23.9h0l-2.59,1.53c-.77.45-1.43.76-2.15.76s-1.38-.31-2.15-.76l-2.59-1.53c-.31-.19-.41-.6-.22-.91.19-.3.58-.4.89-.23h0Z"/>
    </g>
  </g>
</svg>