<?xml version="1.0" encoding="UTF-8"?>
<svg id="b" data-name="图层 2" xmlns="http://www.w3.org/2000/svg" viewBox="0 0 40 40">
  <defs>
    <style>
      .d {
        fill: #fff;
      }

      .e {
        fill: none;
      }
    </style>
  </defs>
  <g id="c" data-name=" 层 1">
    <g>
      <rect class="e" width="40" height="40"/>
      <g>
        <path class="d" d="m35.45,19.92h.04c-.17-.23-.38-.41-.63-.54-.36-.19-.76-.29-1.16-.29h-.24c-.05,0-.05,0-.05-.05v-1.39c0-.18,0-.35-.03-.52-.03-.24-.1-.48-.2-.7-.18-.4-.49-.73-.88-.94-.41-.22-.85-.33-1.31-.34h-.95s-.07,0-.08-.01c-.01-.01-.01-.03-.01-.08v-.65s0-.03-.01-.04c0,0-.05,0-.05,0h-2.01s-.02,0-.03,0c0,0-.01.02-.01.03v.72s-.02.03-.03.03h-1.32s-.04,0-.04.04v1.96c0,.06,0,.08.01.1.01.01.04,0,.09,0h1.2c.11,0,.09.17.09.17v1.53s0,.15-.08.15h-1.96c-.09,0-.08.11-.08.11v1.91s0,.03,0,.04c0,.02.02.04.05.05h1.92c.05,0,.08,0,.09,0s0,.04,0,.09v4.27c0,.06,0,.08.01.1.01.01.04.01.1.01h1.89c.06,0,.08,0,.1-.01.01-.01,0-.04,0-.1v-4.33s0-.05.04-.05h3.06c.13,0,.25.03.37.08.22.09.36.31.36.54v1.57c0,.34-.15.48-.44.48h-1.61s-.03,0-.03.04c0,.03.62,1.43.74,1.71h0s.03.05.05.05h.67c.2,0,.68,0,.88-.01.18-.01.36-.05.54-.1.77-.23,1.29-.94,1.28-1.74v-2.62c0-.17,0-.34-.03-.51-.04-.28-.15-.54-.32-.77h0Zm-4.15-.92s0,.02,0,.03v.02h0s0,.02,0,.02c0,0,0,0,0,0h-.01s-.05.01-.05.01h-1.31s-.03-.01-.03-.03v-1.73s-.01-.07,0-.08c.01-.01.03-.01.08-.01h.97c.05,0,.11,0,.16.02.12.03.21.14.22.27v1.47h0Z"/>
        <path class="d" d="m6.77,17.23h-2.04s-.01,0-.01,0c0,.04,0,.07-.01.11l-.02.33-.02.31-.04.46c-.02.21-.03.41-.05.62,0,.03,0,.07,0,.11l-.03.35-.02.27-.02.34-.02.3-.03.32c0,.11-.02.23-.03.34l-.02.3c0,.28-.06.55-.18.8l-.02.03s-.02.04.02.11c.14.3.27.6.41.9.21.47.42.93.63,1.4.01.02.02.03.02.03.02-.01.04-.03.06-.06.19-.25.36-.52.49-.8.19-.41.35-.85.46-1.29.12-.43.19-.86.22-1.3v-.09s.09-1.04.09-1.04l.03-.46.04-.46c.01-.22.03-.44.05-.66l.05-.69c0-.05,0-.11.01-.16v-.2c.02-.06.02-.13.03-.19,0-.04,0-.05-.04-.05h0Z"/>
        <path class="d" d="m10.31,14.5s-.02-.04-.04-.04h-1.99s-.04.01-.04.04v1.54c0,1.76-.01,4.59-.01,6.27v1.23s0,.1-.02.14c-.05.14-.2.23-.35.21h-.98c-.05,0-.06,0-.05.06.16.41.34.82.53,1.22l.2.45s.04.05.07.05c.41.01.83,0,1.24-.02.2-.02.4-.08.58-.18.39-.22.68-.58.78-1.02.07-.23.1-.47.1-.71v-4.55c0-.96,0-2.55,0-3.61v-1.09h0Z"/>
        <path class="d" d="m14.11,21.13v-.11s-.06-.58-.06-.58l-.02-.23-.03-.41c-.04-.61-.09-1.21-.14-1.82l-.03-.37c-.01-.13-.02-.25-.03-.38,0-.01-.05-.01-.08-.01h-1.97s-.04,0-.04.05c.03.41.07.83.1,1.24.02.22.03.44.05.66l.03.46c.05.64.1,1.28.15,1.93.04.33.1.65.18.97.2.75.52,1.46.95,2.1.02.03.04.05.05.05,0,0,.01,0,.01-.01h0c.07-.16.39-.88.66-1.48l.38-.84s.04-.06.04-.08c-.14-.27-.2-.57-.2-.87,0-.09,0-.18-.02-.27h0Z"/>
        <path class="d" d="m18.55,23.56h-2.22c-.34,0-.68-.06-1.01-.16,0,0-.02,0-.03,0,0,0-.01.01-.02.02l-.93,2.05h0s0,.04.01.04c.2.1.43.15.65.16h2.61s.03,0,.03-.02l.94-2.04s0-.01,0-.02c0,0,0-.02,0-.02,0-.01-.03-.02-.04-.01h0Z"/>
        <path class="d" d="m19.44,21.02s0-.01,0-.02c0,0-.02-.01-.03-.01h-1.15s-.05,0-.08-.02c-.07-.04-.1-.13-.07-.21l1.54-3.48v-.02s0-.02-.02-.03h-.02s-1.74,0-1.74,0c-.03,0-.06,0-.08-.02-.1-.04-.14-.16-.1-.26l1.15-2.59s0-.02,0-.03c0,0-.02-.02-.03-.02h-2.05s-.01,0-.02,0h-.01s-1.22,2.75-1.22,2.75c-.12.25-.24.5-.35.76-.07.16-.13.32-.18.48-.02.08-.03.17-.03.25,0,.21.12.39.3.5.05.03.11.06.17.08.14.05.29.08.44.08h.78s-.33.78-.61,1.41l-.31.7c-.07.17-.13.34-.18.51-.02.07-.03.15-.03.23,0,.22.12.41.3.53.06.03.12.06.18.08.14.05.3.07.45.07h2.18s.03,0,.03-.02l.77-1.69v-.02s0,0,0,0Z"/>
        <path class="d" d="m25.79,23.58s0,0,0,0,0,0,0,0h-.01s-1.93,0-1.93,0c-.04,0-.06-.02-.06-.06v-6.17s0-.07,0-.08c.01,0,.03,0,.08,0h1.14c.05,0,.08,0,.09-.01,0-.01,0-.04,0-.08v-1.91c0-.05,0-.08,0-.09s-.04,0-.09,0h-4.63c-.07,0-.08,0-.08.1v1.91c0,.05,0,.08.01.09.01.01.04.01.09.01h1.13s.07,0,.08.01c0,.01,0,.03,0,.08v6.13c0,.06,0,.09,0,.1-.01.01-.04,0-.1,0h-1.72s-.06.01-.08.04l-.92,2.01s-.02.03,0,.05c0,.01.01.01.06.01h6.93s.05,0,.05-.04v-2.04h0s0,0,0,0h0Z"/>
        <path class="d" d="m33.74,17.21h1.02c.36,0,.7-.19.89-.49.11-.17.17-.37.17-.57,0-.58-.47-1.05-1.05-1.05s-1.05.47-1.05,1.05v1.04s0,.01.02.02h.01,0Z"/>
      </g>
    </g>
  </g>
</svg>