<?xml version="1.0" encoding="UTF-8"?>
<svg id="b" data-name="图层 2" xmlns="http://www.w3.org/2000/svg" viewBox="0 0 40 40">
  <defs>
    <style>
      .d {
        fill: #fff;
      }

      .e {
        fill: none;
      }
    </style>
  </defs>
  <g id="c" data-name=" 层 1">
    <g>
      <rect class="e" width="40" height="40"/>
      <g>
        <path class="d" d="m28.71,13.6c-1.32-1.47-3.28-2.03-5.08-1.65h0c-.42.09-.68.5-.59.92.09.42.5.68.92.59,1.28-.27,2.67.13,3.61,1.17.94,1.04,1.2,2.46.79,3.71h0c-.13.41.09.84.5.97.41.13.84-.09.97-.5h0c.57-1.76.21-3.76-1.12-5.22h0Z"/>
        <path class="d" d="m26.38,18.4c.35.11.72-.08.84-.43.28-.85.1-1.83-.54-2.54-.64-.71-1.6-.99-2.47-.8-.36.08-.59.43-.51.79.08.36.43.59.79.51h0c.43-.09.9.04,1.21.39.32.35.4.83.27,1.24h0c-.11.35.08.72.43.84h0Z"/>
        <path class="d" d="m25.06,19.7c-.28-.08-.48-.14-.33-.52.32-.81.35-1.51,0-2.01-.65-.94-2.45-.88-4.5-.02,0,0-.64.28-.48-.23.32-1.02.27-1.87-.22-2.36-1.11-1.11-4.08.04-6.61,2.58-1.9,1.9-3.01,3.92-3.01,5.66,0,3.33,4.28,5.36,8.46,5.36,5.48,0,9.13-3.19,9.13-5.72,0-1.53-1.29-2.4-2.44-2.75Zm-6.68,7.28c-3.34.33-6.22-1.18-6.44-3.37-.22-2.19,2.31-4.23,5.65-4.57,3.34-.33,6.22,1.18,6.44,3.37.22,2.19-2.31,4.24-5.65,4.57h0Z"/>
        <path class="d" d="m18.72,20.72c-1.59-.41-3.38.38-4.07,1.78-.7,1.43-.02,3.01,1.58,3.53,1.66.54,3.62-.29,4.3-1.83.67-1.51-.17-3.06-1.81-3.48h0Zm-1.21,3.65c-.32.52-1.01.74-1.54.5-.51-.23-.66-.83-.34-1.33.32-.5.99-.72,1.5-.51.52.22.69.82.37,1.34Zm1.06-1.37c-.12.2-.37.3-.58.21-.2-.08-.26-.3-.15-.5.12-.2.36-.29.56-.21.2.07.27.3.16.5Z"/>
      </g>
    </g>
  </g>
</svg>