<?xml version="1.0" encoding="UTF-8"?><svg id="_层_1" xmlns="http://www.w3.org/2000/svg" viewBox="0 0 256 256"><defs><style>.cls-1{fill:#7f7f7f;}</style></defs><path class="cls-1" d="M232.76,50.94c-15.93-17.67-39.44-24.41-61.14-19.8h0c-5.02,1.08-8.22,6.01-7.14,11.03,1.07,5.01,6,8.22,11.02,7.14,15.44-3.27,32.14,1.53,43.47,14.07,11.31,12.55,14.39,29.66,9.55,44.67h0c-1.59,4.89,1.09,10.12,5.98,11.7,4.88,1.58,10.12-1.09,11.7-5.97v-.04c6.81-21.11,2.5-45.17-13.43-62.81Z"/><path class="cls-1" d="M204.75,108.78c4.21,1.34,8.71-.95,10.06-5.16,3.32-10.28,1.24-22-6.53-30.6-7.76-8.6-19.2-11.87-29.78-9.63-4.32,.93-7.08,5.17-6.15,9.5,.92,4.31,5.17,7.08,9.47,6.14h0c5.18-1.09,10.78,.5,14.57,4.7,3.81,4.22,4.82,9.95,3.19,14.97h0c-1.35,4.2,.95,8.71,5.15,10.08Z"/><path class="cls-1" d="M188.94,124.35c-3.41-1.01-5.76-1.71-3.96-6.2,3.87-9.75,4.27-18.15,.07-24.15-7.88-11.26-29.44-10.64-54.13-.3,0,0-7.76,3.39-5.77-2.75,3.8-12.22,3.23-22.46-2.69-28.36-13.4-13.4-49.04,.51-79.59,31.05C19.98,116.53,6.69,140.79,6.69,161.76c0,40.12,51.45,64.51,101.79,64.51,65.98,0,109.88-38.33,109.88-68.77,0-18.4-15.49-28.82-29.42-33.15Zm-80.33,87.54c-40.17,3.96-74.84-14.19-77.45-40.56-2.61-26.36,27.85-50.95,68-54.93,40.18-3.97,74.84,14.19,77.45,40.54,2.6,26.38-27.84,50.98-68.01,54.95Z"/><path class="cls-1" d="M112.62,136.69c-19.11-4.97-40.72,4.55-49.01,21.4-8.46,17.17-.28,36.24,19.03,42.48,19.99,6.44,43.57-3.44,51.77-21.97,8.08-18.14-2.01-36.79-21.79-41.91Zm-14.59,43.87c-3.89,6.2-12.21,8.92-18.48,6.05-6.17-2.81-7.99-10.01-4.11-16.05,3.83-6.02,11.87-8.7,18.1-6.1,6.29,2.69,8.3,9.84,4.49,16.1Zm12.79-16.43c-1.4,2.41-4.51,3.56-6.94,2.56-2.4-.98-3.15-3.65-1.78-6.02,1.4-2.35,4.38-3.49,6.77-2.56,2.42,.89,3.3,3.61,1.95,6.02Z"/></svg>